# xmcd CD database file
#
# Track frame offsets:
#	150
#	12815
#	22000
#	39930
#	58490
#	83272
#	100900
#	126250
#	129522
#	145130
#	170112
#	195955
#	215857
#	243427
#	257302
#
# Disc length: 3950 seconds
#
# Revision: 0
# Processed by: cddbd v1.5.2PL0 Copyright (c) Steve Scherf et al.
# Submitted via: CDex 1.99.1
#
DISCID=cb0f6c0f
DTITLE=Robert One-Man Johnson - Bruise... Live in Nagoya
DYEAR=1993
DGENRE=Blues
TTITLE0=Stray Dog Blues
TTITLE1=I Love a Little Lady
TTITLE2=What Got Wrong With You?
TTITLE3=Nobody's Fault but Mine
TTITLE4=Blood Red Sunset in a Gray Nagoya Sky
TTITLE5=Some Folks
TTITLE6=It's a Rainy Day
TTITLE7=Band Introductions
TTITLE8=Danger in a Midnight Smile
TTITLE9=With Her or Without Her
TTITLE10=Gypsy Roses
TTITLE11=Nothing Left to Do but Sing the Blues
TTITLE12=She Put a Pain in My Heart
TTITLE13=Victimized in a Crime of Passion
TTITLE14=Life's Too Short/Nagoya Blues
EXTD=YEAR: 1993
EXTT0=
EXTT1=
EXTT2=
EXTT3=
EXTT4=
EXTT5=
EXTT6=
EXTT7=
EXTT8=
EXTT9=
EXTT10=
EXTT11=
EXTT12=
EXTT13=
EXTT14=
PLAYORDER=
